<svg xmlns="http://www.w3.org/2000/svg" width="1em" height="1em" viewBox="0 0 256 256"><path fill="currentColor" d="M40 88h176V48a8 8 0 0 0-8-8H48a8 8 0 0 0-8 8Z" opacity=".2"/><path fill="currentColor" d="M208 32h-24v-8a8 8 0 0 0-16 0v8H88v-8a8 8 0 0 0-16 0v8H48a16 16 0 0 0-16 16v160a16 16 0 0 0 16 16h160a16 16 0 0 0 16-16V48a16 16 0 0 0-16-16ZM72 48v8a8 8 0 0 0 16 0v-8h80v8a8 8 0 0 0 16 0v-8h24v32H48V48Zm136 160H48V96h160v112Z"/><path fill="currentColor" d="m117.4 144.1l8.8-11.1a8 8 0 0 0-6.2-13H92a8 8 0 0 0 0 16h11.4l-5.6 7a8 8 0 0 0 6.2 13a8 8 0 0 1 0 16a8.3 8.3 0 0 1-5.7-2.3a7.9 7.9 0 0 0-11.3 0a8 8 0 0 0 0 11.3a24 24 0 0 0 41-17a23.9 23.9 0 0 0-10.6-19.9Zm46.2-23.3a8.2 8.2 0 0 0-8.4.8l-16 12a8 8 0 0 0-1.6 11.2a8.1 8.1 0 0 0 11.2 1.6l3.2-2.4v36a8 8 0 0 0 16 0v-52a8.2 8.2 0 0 0-4.4-7.2Z"/></svg>